<svg enable-background="new 0 0 49 23" height="23" viewBox="0 0 49 23" width="49" xmlns="http://www.w3.org/2000/svg"><g fill="#e0dfdf"><path d="m3.961 3.365s.11.277.301.762c.183.478.44 1.156.7 1.986.509 1.66 1.194 3.895 1.107 6.355-.033.558-.065 1.116-.097 1.665-.042.559-.124 1.126-.183 1.664-.058.542-.166 1.048-.239 1.537-.058.49-.18.945-.25 1.374-.063.43-.179.815-.241 1.167-.08.354-.15.661-.208.915-.07.26-.125.465-.162.604-.049.159-.076.244-.076.244-.253.488-.855.68-1.344.426-.489-.253-.68-.854-.426-1.344-.008.011.143-.151.364-.564.1-.207.257-.443.367-.752.12-.304.269-.643.374-1.035.104-.391.245-.809.316-1.271.063-.46.188-.945.209-1.448.032-.506.088-1.014.106-1.553-.004-.551-.008-1.109-.011-1.669-.009-.493-.068-1.022-.163-1.525-.105-.508-.227-1.006-.373-1.485-.289-.957-.622-1.841-.971-2.572-.342-.734-.655-1.333-.886-1.74-.238-.394-.374-.619-.374-.619l-.024-.04c-.35-.578-.164-1.33.415-1.68.578-.349 1.33-.164 1.679.415.035.058.067.123.09.183z"/><path d="m7.399 19.677c0 .001.258.105.713.255.437.137 1.124.347 2.008.468.883.114 1.982.208 3.217.026 1.228-.168 2.613-.536 3.915-1.324 1.307-.764 2.517-1.931 3.361-3.431.829-1.505 1.326-3.328 1.154-5.162-.135-1.836-.905-3.668-2.175-5.088-1.249-1.447-3.03-2.39-4.907-2.74-1.766-.296-3.742.223-5.141 1.368-1.411 1.148-2.342 2.808-2.455 4.507-.095 1.672.646 3.342 1.89 4.338.617.504 1.31.868 2.077 1.056.656.15 1.442.146 2.097-.062 1.368-.374 2.344-1.44 2.757-2.523.45-1.081.25-2.153-.135-2.889-.377-.758-.965-1.165-1.38-1.31-.211-.075-.38-.102-.494-.113-.113-.014-.172-.013-.172-.013-.35.004-.638-.275-.642-.625s.275-.637.625-.642c.128-.001.249.035.35.1l.031.021s.066.042.195.124c.133.067.311.202.545.355.446.333 1.105.831 1.642 1.714.521.863.842 2.229.35 3.61-.441 1.346-1.57 2.736-3.276 3.368-.854.323-1.786.436-2.824.274-.923-.151-1.891-.555-2.729-1.161-1.689-1.193-2.922-3.339-2.867-5.685-.005-.538.119-1.29.239-1.714.17-.61.375-1.108.647-1.64.54-1.034 1.294-1.984 2.237-2.718 1.888-1.478 4.385-2.143 6.828-1.699 2.308.435 4.43 1.765 5.864 3.55 1.462 1.774 2.26 3.997 2.313 6.154.032.54-.021 1.073-.065 1.599-.092.53-.177 1.096-.325 1.53-.275.99-.684 1.902-1.178 2.742-1.006 1.672-2.419 2.947-3.895 3.752-1.48.807-2.973 1.241-4.312 1.431-1.342.181-2.527.186-3.496.101-.97-.096-1.718-.207-2.245-.331-.496-.11-.76-.169-.76-.169l-.021-.005c-.396-.088-.646-.481-.558-.877s.481-.646.877-.559c.042.009.084.023.12.037z"/><path d="m27.258 14.091c0 .232-.052.561-.154.986-.104.426-.154.754-.154.986v3.982c0 .245.07.632.212 1.16-.193.297-.405.445-.638.445-.812 0-1.257-.406-1.334-1.219-.129-1.508-.193-2.642-.193-3.402 0-1.276.051-2.347.154-3.21 0-.064 0-.129 0-.193 0-.232.179-.348.537-.348.318 0 .638.064.958.193.408.143.612.349.612.62zm.175-2.707c0 .284-.097.516-.29.696-.193.181-.433.271-.716.271-.335 0-.647-.115-.938-.348s-.436-.516-.436-.851c0-.283.1-.515.3-.696s.448-.271.744-.271c.349 0 .658.113.929.338.271.227.407.513.407.861z"/><path d="m34.905 9.973c0 .219-.106.399-.319.542-.213.142-.429.212-.647.212-.168 0-.349-.077-.542-.232-.013-.258-.064-.422-.154-.493s-.277-.106-.561-.106c-.555 0-.954.693-1.199 2.08-.129.796-.199 1.714-.212 2.754h.231.252c.541 0 .928.212 1.159.638l-.174.734c-.245.129-.67.193-1.275.193-.104 0-.188.007-.252.02-.038.426-.058.89-.058 1.393v1.759c0 .684.103 1.387.31 2.108-.503.283-.87.425-1.103.425-.31 0-.555-.238-.734-.715-.155-.374-.232-.748-.232-1.122 0-.231.025-1.47.077-3.712-.425.038-.625.058-.6.058-.219 0-.412-.07-.58-.213-.167-.142-.251-.328-.251-.561 0-.399.167-.657.503-.773.18-.051.516-.077 1.005-.077.039-.129.059-.522.059-1.18 0-1.327.213-2.481.638-3.461.58-1.289 1.45-1.934 2.61-1.934.58 0 1.057.129 1.431.387.412.309.618.734.618 1.276z"/><path d="m39.295 14.884c0 .09-.013.232-.038.426-.271.387-.555.58-.852.58-.244 0-.464-.143-.657-.426-.025-.58-.231-.87-.618-.87-.232 0-.516.612-.851 1.837-.155.541-.232 1.295-.232 2.262 0 .916.045 1.47.136 1.663.103.245.154.413.154.503 0 .22-.1.396-.3.532-.2.135-.422.202-.667.202-.696 0-1.044-.321-1.044-.967 0-.063.016-.154.048-.271s.049-.199.049-.251c0-.657-.032-1.634-.097-2.93-.064-1.295-.097-2.265-.097-2.91 0-.58.348-.87 1.044-.87.412 0 .696.123.851.368.361-.399.767-.6 1.219-.6.309 0 .605.084.889.251.193.104.419.326.677.667.257.343.386.61.386.804z"/><path d="m46.41 18.248c0 1.663-.052 2.836-.155 3.52-.064.399-.335.599-.812.599-.723 0-1.044-.36-.967-1.082-.645.309-1.314.464-2.011.464-.671 0-1.309-.168-1.914-.503-.723-.399-1.083-.909-1.083-1.527 0-.605.412-1.173 1.237-1.702.747-.477 1.45-.715 2.107-.715h1.644v-.464c.013-1.354-.387-2.03-1.199-2.03-1.018 0-1.527.477-1.527 1.431 0 .322-.181.483-.541.483-.22 0-.448-.1-.687-.3-.238-.199-.357-.409-.357-.628 0-.723.258-1.315.773-1.779s1.134-.696 1.856-.696c2.424-.002 3.636 1.642 3.636 4.929zm-1.953.696c0-.258-.193-.387-.58-.387-1.611 0-2.417.38-2.417 1.141 0 .413.354.619 1.063.619.438 0 .851-.123 1.237-.368.465-.27.697-.605.697-1.005z"/></g></svg>