<?xml version="1.0" encoding="utf-8"?>
<!-- Generator: Adobe Illustrator 16.0.0, SVG Export Plug-In . SVG Version: 6.00 Build 0)  -->
<!DOCTYPE svg PUBLIC "-//W3C//DTD SVG 1.1//EN" "http://www.w3.org/Graphics/SVG/1.1/DTD/svg11.dtd">
<svg version="1.1" id="Layer_1" xmlns="http://www.w3.org/2000/svg" xmlns:xlink="http://www.w3.org/1999/xlink" x="0px" y="0px"
	 width="49px" height="23px" viewBox="0 0 49 23" enable-background="new 0 0 49 23" xml:space="preserve">
<g>
	<path fill="none" d="M3.731,26.18"/>
</g>
<g>
	<path fill="#E0DFDF" d="M3.961,3.365c0,0,0.11,0.277,0.301,0.762c0.183,0.478,0.44,1.156,0.7,1.986
		c0.509,1.66,1.194,3.895,1.107,6.355c-0.033,0.558-0.065,1.116-0.097,1.665c-0.042,0.559-0.124,1.126-0.183,1.664
		c-0.058,0.542-0.166,1.048-0.239,1.537c-0.058,0.49-0.18,0.945-0.25,1.374c-0.063,0.43-0.179,0.815-0.241,1.167
		c-0.08,0.354-0.15,0.661-0.208,0.915c-0.07,0.26-0.125,0.465-0.162,0.604c-0.049,0.159-0.076,0.244-0.076,0.244
		c-0.253,0.488-0.855,0.68-1.344,0.426c-0.489-0.253-0.68-0.854-0.426-1.344c-0.008,0.011,0.143-0.151,0.364-0.564
		c0.1-0.207,0.257-0.443,0.367-0.752c0.12-0.304,0.269-0.643,0.374-1.035c0.104-0.391,0.245-0.809,0.316-1.271
		c0.063-0.46,0.188-0.945,0.209-1.448c0.032-0.506,0.088-1.014,0.106-1.553c-0.004-0.551-0.008-1.109-0.011-1.669
		c-0.009-0.493-0.068-1.022-0.163-1.525c-0.105-0.508-0.227-1.006-0.373-1.485C3.743,8.461,3.41,7.577,3.061,6.846
		c-0.342-0.734-0.655-1.333-0.886-1.74C1.937,4.712,1.801,4.487,1.801,4.487l-0.024-0.04c-0.35-0.578-0.164-1.33,0.415-1.68
		c0.578-0.349,1.33-0.164,1.679,0.415C3.906,3.24,3.938,3.305,3.961,3.365z"/>
</g>
<g>
	<path fill="#E0DFDF" d="M7.399,19.677c0,0.001,0.258,0.105,0.713,0.255c0.437,0.137,1.124,0.347,2.008,0.468
		c0.883,0.114,1.982,0.208,3.217,0.026c1.228-0.168,2.613-0.536,3.915-1.324c1.307-0.764,2.517-1.931,3.361-3.431
		c0.829-1.505,1.326-3.328,1.154-5.162c-0.135-1.836-0.905-3.668-2.175-5.088c-1.249-1.447-3.03-2.39-4.907-2.74
		c-1.766-0.296-3.742,0.223-5.141,1.368C8.133,5.197,7.202,6.857,7.089,8.556c-0.095,1.672,0.646,3.342,1.89,4.338
		c0.617,0.504,1.31,0.868,2.077,1.056c0.656,0.15,1.442,0.146,2.097-0.062c1.368-0.374,2.344-1.44,2.757-2.523
		c0.45-1.081,0.25-2.153-0.135-2.889c-0.377-0.758-0.965-1.165-1.38-1.31c-0.211-0.075-0.38-0.102-0.494-0.113
		c-0.113-0.014-0.172-0.013-0.172-0.013c-0.35,0.004-0.638-0.275-0.642-0.625s0.275-0.637,0.625-0.642
		c0.128-0.001,0.249,0.035,0.35,0.1l0.031,0.021c0,0,0.066,0.042,0.195,0.124c0.133,0.067,0.311,0.202,0.545,0.355
		c0.446,0.333,1.105,0.831,1.642,1.714c0.521,0.863,0.842,2.229,0.35,3.61c-0.441,1.346-1.57,2.736-3.276,3.368
		c-0.854,0.323-1.786,0.436-2.824,0.274c-0.923-0.151-1.891-0.555-2.729-1.161c-1.689-1.193-2.922-3.339-2.867-5.685
		c-0.005-0.538,0.119-1.29,0.239-1.714c0.17-0.61,0.375-1.108,0.647-1.64c0.54-1.034,1.294-1.984,2.237-2.718
		c1.888-1.478,4.385-2.143,6.828-1.699c2.308,0.435,4.43,1.765,5.864,3.55c1.462,1.774,2.26,3.997,2.313,6.154
		c0.032,0.54-0.021,1.073-0.065,1.599c-0.092,0.53-0.177,1.096-0.325,1.53c-0.275,0.99-0.684,1.902-1.178,2.742
		c-1.006,1.672-2.419,2.947-3.895,3.752c-1.48,0.807-2.973,1.241-4.312,1.431c-1.342,0.181-2.527,0.186-3.496,0.101
		c-0.97-0.096-1.718-0.207-2.245-0.331c-0.496-0.11-0.76-0.169-0.76-0.169l-0.021-0.005c-0.396-0.088-0.646-0.481-0.558-0.877
		c0.088-0.396,0.481-0.646,0.877-0.559C7.321,19.649,7.363,19.663,7.399,19.677z"/>
</g>
<g>
	<path fill="#E0DFDF" d="M27.258,14.091c0,0.232-0.052,0.561-0.154,0.986c-0.104,0.426-0.154,0.754-0.154,0.986v3.982
		c0,0.245,0.07,0.632,0.212,1.16c-0.193,0.297-0.405,0.445-0.638,0.445c-0.812,0-1.257-0.406-1.334-1.219
		c-0.129-1.508-0.193-2.642-0.193-3.402c0-1.276,0.051-2.347,0.154-3.21c0-0.064,0-0.129,0-0.193c0-0.232,0.179-0.348,0.537-0.348
		c0.318,0,0.638,0.064,0.958,0.193C27.054,13.614,27.258,13.82,27.258,14.091z M27.433,11.384c0,0.284-0.097,0.516-0.29,0.696
		c-0.193,0.181-0.433,0.271-0.716,0.271c-0.335,0-0.647-0.115-0.938-0.348s-0.436-0.516-0.436-0.851c0-0.283,0.1-0.515,0.3-0.696
		s0.448-0.271,0.744-0.271c0.349,0,0.658,0.113,0.929,0.338C27.297,10.75,27.433,11.036,27.433,11.384z"/>
	<path fill="#E0DFDF" d="M34.905,9.973c0,0.219-0.106,0.399-0.319,0.542c-0.213,0.142-0.429,0.212-0.647,0.212
		c-0.168,0-0.349-0.077-0.542-0.232c-0.013-0.258-0.064-0.422-0.154-0.493c-0.09-0.071-0.277-0.106-0.561-0.106
		c-0.555,0-0.954,0.693-1.199,2.08c-0.129,0.796-0.199,1.714-0.212,2.754c0.063,0,0.142,0,0.231,0c0.116,0,0.2,0,0.252,0
		c0.541,0,0.928,0.212,1.159,0.638l-0.174,0.734c-0.245,0.129-0.67,0.193-1.275,0.193c-0.104,0-0.188,0.007-0.252,0.02
		c-0.038,0.426-0.058,0.89-0.058,1.393v1.759c0,0.684,0.103,1.387,0.31,2.108c-0.503,0.283-0.87,0.425-1.103,0.425
		c-0.31,0-0.555-0.238-0.734-0.715c-0.155-0.374-0.232-0.748-0.232-1.122c0-0.231,0.025-1.47,0.077-3.712
		c-0.425,0.038-0.625,0.058-0.6,0.058c-0.219,0-0.412-0.07-0.58-0.213c-0.167-0.142-0.251-0.328-0.251-0.561
		c0-0.399,0.167-0.657,0.503-0.773c0.18-0.051,0.516-0.077,1.005-0.077c0.039-0.129,0.059-0.522,0.059-1.18
		c0-1.327,0.213-2.481,0.638-3.461c0.58-1.289,1.45-1.934,2.61-1.934c0.58,0,1.057,0.129,1.431,0.387
		C34.699,9.006,34.905,9.431,34.905,9.973z"/>
	<path fill="#E0DFDF" d="M39.295,14.884c0,0.09-0.013,0.232-0.038,0.426c-0.271,0.387-0.555,0.58-0.852,0.58
		c-0.244,0-0.464-0.143-0.657-0.426c-0.025-0.58-0.231-0.87-0.618-0.87c-0.232,0-0.516,0.612-0.851,1.837
		c-0.155,0.541-0.232,1.295-0.232,2.262c0,0.916,0.045,1.47,0.136,1.663c0.103,0.245,0.154,0.413,0.154,0.503
		c0,0.22-0.1,0.396-0.3,0.532c-0.2,0.135-0.422,0.202-0.667,0.202c-0.696,0-1.044-0.321-1.044-0.967
		c0-0.063,0.016-0.154,0.048-0.271s0.049-0.199,0.049-0.251c0-0.657-0.032-1.634-0.097-2.93c-0.064-1.295-0.097-2.265-0.097-2.91
		c0-0.58,0.348-0.87,1.044-0.87c0.412,0,0.696,0.123,0.851,0.368c0.361-0.399,0.767-0.6,1.219-0.6c0.309,0,0.605,0.084,0.889,0.251
		c0.193,0.104,0.419,0.326,0.677,0.667C39.166,14.423,39.295,14.69,39.295,14.884z"/>
	<path fill="#E0DFDF" d="M46.41,18.248c0,1.663-0.052,2.836-0.155,3.52c-0.064,0.399-0.335,0.599-0.812,0.599
		c-0.723,0-1.044-0.36-0.967-1.082c-0.645,0.309-1.314,0.464-2.011,0.464c-0.671,0-1.309-0.168-1.914-0.503
		c-0.723-0.399-1.083-0.909-1.083-1.527c0-0.605,0.412-1.173,1.237-1.702c0.747-0.477,1.45-0.715,2.107-0.715h1.644v-0.464
		c0.013-1.354-0.387-2.03-1.199-2.03c-1.018,0-1.527,0.477-1.527,1.431c0,0.322-0.181,0.483-0.541,0.483
		c-0.22,0-0.448-0.1-0.687-0.3c-0.238-0.199-0.357-0.409-0.357-0.628c0-0.723,0.258-1.315,0.773-1.779s1.134-0.696,1.856-0.696
		C45.198,13.317,46.41,14.961,46.41,18.248z M44.457,18.944c0-0.258-0.193-0.387-0.58-0.387c-1.611,0-2.417,0.38-2.417,1.141
		c0,0.413,0.354,0.619,1.063,0.619c0.438,0,0.851-0.123,1.237-0.368C44.225,19.679,44.457,19.344,44.457,18.944z"/>
</g>
<g>
</g>
<g>
</g>
<g>
</g>
<g>
</g>
<g>
</g>
<g>
</g>
<g>
</g>
<g>
</g>
<g>
</g>
<g>
</g>
<g>
</g>
<g>
</g>
<g>
</g>
<g>
</g>
<g>
</g>
</svg>
